<svg xmlns="http://www.w3.org/2000/svg" xmlns:xlink="http://www.w3.org/1999/xlink" viewBox="0 0 105.29 87.38"><defs><style>.cls-1{mask:url(#mask);filter:url(#luminosity-noclip-4);}.cls-14,.cls-2,.cls-4,.cls-6{mix-blend-mode:multiply;}.cls-2{fill:url(#linear-gradient);}.cls-3{mask:url(#mask-2);filter:url(#luminosity-noclip-5);}.cls-4{fill:url(#linear-gradient-2);}.cls-5{mask:url(#mask-3);filter:url(#luminosity-noclip-6);}.cls-6{fill:url(#linear-gradient-3);}.cls-7{isolation:isolate;}.cls-8{fill:url(#linear-gradient-4);}.cls-9{fill:url(#linear-gradient-5);}.cls-10{mask:url(#mask-4);}.cls-11{opacity:0.7;fill:url(#linear-gradient-6);}.cls-12{fill:url(#linear-gradient-7);}.cls-13{mask:url(#mask-5);}.cls-14{fill:url(#linear-gradient-8);}.cls-15{fill:#303030;}.cls-16{fill:#787878;}.cls-17{mask:url(#mask-6);}.cls-18{opacity:0.2;fill:url(#linear-gradient-9);}.cls-19{filter:url(#luminosity-noclip-3);}.cls-20{filter:url(#luminosity-noclip-2);}.cls-21{filter:url(#luminosity-noclip);}</style><filter id="luminosity-noclip" x="36.78" y="-8403.45" width="31.74" height="32766" filterUnits="userSpaceOnUse" color-interpolation-filters="sRGB"><feFlood flood-color="#fff" result="bg"/><feBlend in="SourceGraphic" in2="bg"/></filter><mask id="mask" x="36.78" y="-8403.45" width="31.74" height="32766" maskUnits="userSpaceOnUse"><g class="cls-21"/></mask><linearGradient id="linear-gradient" x1="52.65" y1="87.38" x2="52.65" y2="86.42" gradientUnits="userSpaceOnUse"><stop offset="0" stop-color="#fff"/><stop offset="0.01" stop-color="#f6f6f6"/><stop offset="0.05" stop-color="#c8c8c8"/><stop offset="0.09" stop-color="#9d9d9d"/><stop offset="0.14" stop-color="#777"/><stop offset="0.2" stop-color="#575757"/><stop offset="0.25" stop-color="#3b3b3b"/><stop offset="0.32" stop-color="#252525"/><stop offset="0.4" stop-color="#141414"/><stop offset="0.49" stop-color="#090909"/><stop offset="0.63" stop-color="#020202"/><stop offset="1"/></linearGradient><filter id="luminosity-noclip-2" x="0.64" y="-8403.45" width="104.01" height="32766" filterUnits="userSpaceOnUse" color-interpolation-filters="sRGB"><feFlood flood-color="#fff" result="bg"/><feBlend in="SourceGraphic" in2="bg"/></filter><mask id="mask-2" x="0.64" y="-8403.45" width="104.01" height="32766" maskUnits="userSpaceOnUse"><g class="cls-20"/></mask><linearGradient id="linear-gradient-2" x1="52.65" y1="72.67" x2="52.65" y2="71.81" gradientUnits="userSpaceOnUse"><stop offset="0" stop-color="#1a1a1a"/><stop offset="0.55" stop-color="#0e0e0e"/><stop offset="1"/></linearGradient><filter id="luminosity-noclip-3" x="20.9" y="-8403.45" width="84.39" height="32766" filterUnits="userSpaceOnUse" color-interpolation-filters="sRGB"><feFlood flood-color="#fff" result="bg"/><feBlend in="SourceGraphic" in2="bg"/></filter><mask id="mask-3" x="20.9" y="-8403.45" width="84.39" height="32766" maskUnits="userSpaceOnUse"><g class="cls-19"/></mask><linearGradient id="linear-gradient-3" x1="63.09" y1="62.95" x2="63.09" gradientUnits="userSpaceOnUse"><stop offset="0"/><stop offset="0.16" stop-color="#030303"/><stop offset="0.29" stop-color="#0d0d0d"/><stop offset="0.41" stop-color="#1e1e1e"/><stop offset="0.53" stop-color="#363636"/><stop offset="0.63" stop-color="#555"/><stop offset="0.74" stop-color="#7b7b7b"/><stop offset="0.84" stop-color="#a7a7a7"/><stop offset="0.94" stop-color="#dadada"/><stop offset="1" stop-color="#fff"/></linearGradient><linearGradient id="linear-gradient-4" x1="36.78" y1="86.9" x2="68.51" y2="86.9" gradientUnits="userSpaceOnUse"><stop offset="0" stop-color="#313131"/><stop offset="0.07" stop-color="#3b3b3b"/><stop offset="0.16" stop-color="#4e4e4e"/><stop offset="0.27" stop-color="#696969"/><stop offset="0.39" stop-color="gray"/><stop offset="0.65" stop-color="#7c7f80"/><stop offset="0.75" stop-color="#6b6d6e"/><stop offset="0.94" stop-color="#3f3f3f"/><stop offset="1" stop-color="#313131"/></linearGradient><linearGradient id="linear-gradient-5" x1="52.65" y1="86.98" x2="52.65" y2="71.8" gradientUnits="userSpaceOnUse"><stop offset="0" stop-color="#525252"/><stop offset="0.16" stop-color="#575757"/><stop offset="0.19" stop-color="#4b4b4b"/><stop offset="0.24" stop-color="#343434"/><stop offset="0.27" stop-color="#3e3e3e"/><stop offset="0.33" stop-color="#595959"/><stop offset="0.39" stop-color="#787878"/><stop offset="0.65" stop-color="#696a6c"/><stop offset="0.76" stop-color="#58585a"/><stop offset="0.98" stop-color="#2b2b2b"/><stop offset="1" stop-color="#262626"/></linearGradient><filter id="luminosity-noclip-4" x="36.78" y="86.42" width="31.74" height="0.95" filterUnits="userSpaceOnUse" color-interpolation-filters="sRGB"><feFlood flood-color="#fff" result="bg"/><feBlend in="SourceGraphic" in2="bg"/></filter><mask id="mask-4" x="36.78" y="86.42" width="31.74" height="0.95" maskUnits="userSpaceOnUse"><g class="cls-1"><path class="cls-2" d="M37,86.42h-.18v.41h0a.55.55,0,0,0,.55.54H68a.55.55,0,0,0,.55-.54v-.42Z"/></g></mask><linearGradient id="linear-gradient-6" x1="52.65" y1="87.38" x2="52.65" y2="86.42" gradientUnits="userSpaceOnUse"><stop offset="0" stop-color="#313131"/><stop offset="0.05" stop-color="#383838"/><stop offset="0.2" stop-color="#434343"/><stop offset="0.41" stop-color="#4a4a4a"/><stop offset="1" stop-color="#4c4c4c"/></linearGradient><linearGradient id="linear-gradient-7" y1="67.81" x2="105.29" y2="67.81" gradientUnits="userSpaceOnUse"><stop offset="0" stop-color="#4a4a4c"/><stop offset="1" stop-color="#717171"/></linearGradient><filter id="luminosity-noclip-5" x="0.64" y="71.81" width="104.01" height="0.86" filterUnits="userSpaceOnUse" color-interpolation-filters="sRGB"><feFlood flood-color="#fff" result="bg"/><feBlend in="SourceGraphic" in2="bg"/></filter><mask id="mask-5" x="0.64" y="71.81" width="104.01" height="0.86" maskUnits="userSpaceOnUse"><g class="cls-3"><path class="cls-4" d="M104.65,71.81a2.52,2.52,0,0,1-1.9.86H2.55a2.54,2.54,0,0,1-1.91-.86Z"/></g></mask><linearGradient id="linear-gradient-8" x1="52.65" y1="72.67" x2="52.65" y2="71.81" gradientUnits="userSpaceOnUse"><stop offset="0"/><stop offset="0.09" stop-color="#0c0c0c"/><stop offset="0.25" stop-color="#2d2d2d"/><stop offset="0.47" stop-color="#636363"/><stop offset="0.73" stop-color="#adadad"/><stop offset="1" stop-color="#fff"/></linearGradient><filter id="luminosity-noclip-6" x="20.9" y="0" width="84.39" height="62.95" filterUnits="userSpaceOnUse" color-interpolation-filters="sRGB"><feFlood flood-color="#fff" result="bg"/><feBlend in="SourceGraphic" in2="bg"/></filter><mask id="mask-6" x="20.9" y="0" width="84.39" height="62.95" maskUnits="userSpaceOnUse"><g class="cls-5"><path class="cls-6" d="M105.29,2.55V63H20.9L83.85,0h18.9A2.55,2.55,0,0,1,105.29,2.55Z"/></g></mask><linearGradient id="linear-gradient-9" x1="63.09" y1="62.95" x2="63.09" gradientUnits="userSpaceOnUse"><stop offset="0" stop-color="#ededed"/><stop offset="0.49" stop-color="#f0f0f0"/><stop offset="0.88" stop-color="#fafafa"/><stop offset="1" stop-color="#fff"/></linearGradient></defs><g class="cls-7"><g id="Layer_2" data-name="Layer 2"><g id="Layer_4" data-name="Layer 4"><path d="M102.75.09H2.55A2.55,2.55,0,0,0,0,2.64V70.12a2.55,2.55,0,0,0,2.55,2.55h100.2a2.55,2.55,0,0,0,2.54-2.55V2.64A2.55,2.55,0,0,0,102.75.09ZM100.89,63H4.4V4.72h96.49Z"/><path class="cls-8" d="M37,86.42h-.18v.41h0a.55.55,0,0,0,.55.54H68a.55.55,0,0,0,.55-.54v-.42Z"/><path class="cls-9" d="M68,87H37.33A.54.54,0,0,1,37,86l3.07-2.15a2.42,2.42,0,0,0,1-1.74l1-10.3H63.19l1,10.3a2.42,2.42,0,0,0,1,1.74L68.28,86A.54.54,0,0,1,68,87Z"/><g class="cls-10"><path class="cls-11" d="M37,86.42h-.18v.41h0a.55.55,0,0,0,.55.54H68a.55.55,0,0,0,.55-.54v-.42Z"/></g><path class="cls-12" d="M105.29,63v7.17a2.55,2.55,0,0,1-2.54,2.55H2.55A2.55,2.55,0,0,1,0,70.12V63Z"/><g class="cls-13"><path class="cls-14" d="M104.65,71.81a2.52,2.52,0,0,1-1.9.86H2.55a2.54,2.54,0,0,1-1.91-.86Z"/></g><path class="cls-15" d="M101,4.43H4.3a.19.19,0,0,0-.18.19V63H4.4V4.72h96.49V63h.29V4.62A.2.2,0,0,0,101,4.43Z"/><rect class="cls-16" y="62.95" width="105.29" height="0.32"/><g class="cls-17"><path class="cls-18" d="M105.29,2.55V63H20.9L83.85,0h18.9A2.55,2.55,0,0,1,105.29,2.55Z"/></g></g></g></g></svg>