<svg xmlns="http://www.w3.org/2000/svg" xmlns:xlink="http://www.w3.org/1999/xlink" viewBox="0 0 26.55 53.17"><defs><style>.cls-1{mask:url(#mask);filter:url(#luminosity-noclip-2);}.cls-2{mix-blend-mode:multiply;fill:url(#linear-gradient);}.cls-3{isolation:isolate;}.cls-4{fill:url(#linear-gradient-2);}.cls-5{fill:url(#linear-gradient-3);}.cls-6{fill:url(#linear-gradient-4);}.cls-7{fill:url(#linear-gradient-5);}.cls-8{fill:url(#linear-gradient-6);}.cls-9{fill:url(#linear-gradient-7);}.cls-10{fill:url(#linear-gradient-8);}.cls-11{fill:url(#linear-gradient-9);}.cls-12{fill:url(#linear-gradient-10);}.cls-13{fill:url(#linear-gradient-11);}.cls-14{mask:url(#mask-2);}.cls-15{opacity:0.2;mix-blend-mode:lighten;fill:url(#linear-gradient-12);}.cls-16{filter:url(#luminosity-noclip);}</style><filter id="luminosity-noclip" x="0" y="-8392.43" width="26.55" height="32766" filterUnits="userSpaceOnUse" color-interpolation-filters="sRGB"><feFlood flood-color="#fff" result="bg"/><feBlend in="SourceGraphic" in2="bg"/></filter><mask id="mask" x="0" y="-8392.43" width="26.55" height="32766" maskUnits="userSpaceOnUse"><g class="cls-16"/></mask><linearGradient id="linear-gradient" x1="-0.4" y1="50.67" x2="37.27" y2="13" gradientUnits="userSpaceOnUse"><stop offset="0.36"/><stop offset="0.54" stop-color="#020202"/><stop offset="0.63" stop-color="#0a0a0a"/><stop offset="0.7" stop-color="#171717"/><stop offset="0.76" stop-color="#292929"/><stop offset="0.81" stop-color="#414141"/><stop offset="0.85" stop-color="#5f5f5f"/><stop offset="0.9" stop-color="#828282"/><stop offset="0.94" stop-color="#ababab"/><stop offset="0.97" stop-color="#d8d8d8"/><stop offset="1" stop-color="#fff"/></linearGradient><linearGradient id="linear-gradient-2" x1="0.3" y1="26.39" x2="0.68" y2="26.39" gradientUnits="userSpaceOnUse"><stop offset="0" stop-color="#666"/><stop offset="1"/></linearGradient><linearGradient id="linear-gradient-3" x1="25.94" y1="26.39" x2="26.32" y2="26.39" gradientUnits="userSpaceOnUse"><stop offset="0"/><stop offset="1" stop-color="#666"/></linearGradient><linearGradient id="linear-gradient-4" x1="13.28" y1="52.69" x2="13.28" y2="49.65" gradientUnits="userSpaceOnUse"><stop offset="0" stop-color="#959595"/><stop offset="1"/></linearGradient><linearGradient id="linear-gradient-5" x1="13.28" y1="3" x2="13.28" y2="-0.79" gradientUnits="userSpaceOnUse"><stop offset="0"/><stop offset="1" stop-color="gray"/></linearGradient><linearGradient id="linear-gradient-6" x1="24.74" y1="26.41" x2="25.66" y2="26.41" gradientUnits="userSpaceOnUse"><stop offset="0" stop-color="#f0f0f0"/><stop offset="0.01" stop-color="#ededed"/><stop offset="0.14" stop-color="#b4b4b4"/><stop offset="0.27" stop-color="#858585"/><stop offset="0.4" stop-color="#606060"/><stop offset="0.51" stop-color="#464646"/><stop offset="0.62" stop-color="#363636"/><stop offset="0.7" stop-color="#303030"/></linearGradient><linearGradient id="linear-gradient-7" x1="1.42" y1="50.68" x2="25.13" y2="50.68" gradientUnits="userSpaceOnUse"><stop offset="0" stop-color="#131313"/><stop offset="0.02" stop-color="#1a1a1a"/><stop offset="0.13" stop-color="#454545"/><stop offset="0.24" stop-color="#666"/><stop offset="0.35" stop-color="#7e7e7e"/><stop offset="0.44" stop-color="#8d8d8d"/><stop offset="0.52" stop-color="#929292"/><stop offset="0.59" stop-color="#8b8b8b"/><stop offset="0.69" stop-color="#767676"/><stop offset="0.81" stop-color="#545454"/><stop offset="0.95" stop-color="#252525"/><stop offset="1" stop-color="#131313"/></linearGradient><linearGradient id="linear-gradient-8" x1="1.42" y1="2.14" x2="25.66" y2="2.14" xlink:href="#linear-gradient-7"/><linearGradient id="linear-gradient-9" x1="0.89" y1="26.39" x2="1.44" y2="26.39" gradientUnits="userSpaceOnUse"><stop offset="0" stop-color="#c8c8c8"/><stop offset="0.23" stop-color="#9b9b9b"/><stop offset="0.6" stop-color="#585858"/><stop offset="0.86" stop-color="#2f2f2f"/><stop offset="1" stop-color="#1f1f1f"/></linearGradient><linearGradient id="linear-gradient-10" x1="24.74" y1="26.41" x2="25.66" y2="26.41" gradientUnits="userSpaceOnUse"><stop offset="0" stop-color="#1f1f1f"/><stop offset="0.14" stop-color="#2f2f2f"/><stop offset="0.4" stop-color="#585858"/><stop offset="0.77" stop-color="#9b9b9b"/><stop offset="1" stop-color="#c8c8c8"/></linearGradient><linearGradient id="linear-gradient-11" x1="11.68" y1="2.02" x2="14.72" y2="2.02" gradientUnits="userSpaceOnUse"><stop offset="0" stop-color="#303030"/><stop offset="0.12" stop-color="#242424"/><stop offset="0.3" stop-color="#171717"/><stop offset="0.48" stop-color="#131313"/><stop offset="0.78" stop-color="#151515"/><stop offset="0.89" stop-color="#1c1c1c"/><stop offset="0.96" stop-color="#272727"/><stop offset="1" stop-color="#303030"/></linearGradient><filter id="luminosity-noclip-2" x="0" y="0" width="26.55" height="53.17" filterUnits="userSpaceOnUse" color-interpolation-filters="sRGB"><feFlood flood-color="#fff" result="bg"/><feBlend in="SourceGraphic" in2="bg"/></filter><mask id="mask-2" x="0" y="0" width="26.55" height="53.17" maskUnits="userSpaceOnUse"><g class="cls-1"><path class="cls-2" d="M26.52,12.29l-.06,0a.09.09,0,0,0-.1.1V3.57A3.59,3.59,0,0,0,23.11,0L0,23.11V49.58a3.59,3.59,0,0,0,3.58,3.59H22.77a3.59,3.59,0,0,0,3.59-3.59V18.28a.1.1,0,0,0,.1.1.09.09,0,0,0,.06,0,.09.09,0,0,0,0-.07V12.37A.11.11,0,0,0,26.52,12.29ZM.49,50.18Zm.05.21Zm.49,1H1v0Zm1.74,1.2.08,0h0Zm.28.06h.12Zm20.1,0h0Zm2.2-51h0l0,0Z"/></g></mask><linearGradient id="linear-gradient-12" x1="-0.4" y1="50.67" x2="37.27" y2="13" gradientUnits="userSpaceOnUse"><stop offset="0.36" stop-color="#fff"/><stop offset="0.91" stop-color="#fff"/><stop offset="1" stop-color="#fff"/></linearGradient></defs><g class="cls-3"><g id="Layer_2" data-name="Layer 2"><g id="Layer_4" data-name="Layer 4"><path class="cls-4" d="M3.43,52.34H3.34l-.16,0a3.62,3.62,0,0,1-.93-.3l-.06,0L2,51.9l-.07,0a3.29,3.29,0,0,1-.33-.23l0,0-.17-.14,0-.05-.05,0-.06-.06,0,0,0,0a3.76,3.76,0,0,1-.25-.31l0-.06-.12-.18a.16.16,0,0,0,0-.07A4.41,4.41,0,0,1,.49,50a.24.24,0,0,1,0-.08,2.85,2.85,0,0,1-.11-.39s0-.06,0-.09a3.68,3.68,0,0,1,0-.58v-45A3.47,3.47,0,0,1,3.6.43a3.14,3.14,0,0,0-3,3.13V49.23A3.13,3.13,0,0,0,3.43,52.34Z"/><path class="cls-5" d="M26.26,3.89v45A3.36,3.36,0,0,1,26.09,50a.24.24,0,0,0,0,.08l0,.07a.14.14,0,0,0,0,.06l-.08.17,0,.07-.05.1,0,.07,0,.07a1.74,1.74,0,0,1-.11.18l0,.06a.18.18,0,0,0-.05.07l0,.06-.05.06-.05.06-.11.12a1.37,1.37,0,0,1-.17.17l0,0-.13.11-.06,0a1.33,1.33,0,0,1-.19.14l-.07,0-.13.08-.07,0-.23.11-.06,0-.08,0-.07,0-.17.06-.06,0-.23.06h-.09l-.08,0-.17,0h-.08a3.13,3.13,0,0,0,2.8-3.11V3.56A3.14,3.14,0,0,0,23.05.44,3.46,3.46,0,0,1,26.26,3.89Z"/><path class="cls-6" d="M26.26,48.9v.33a3.46,3.46,0,0,1-3.46,3.46h-19A3.46,3.46,0,0,1,.3,49.23V48.9a3.68,3.68,0,0,0,0,.58s0,.06,0,.09A2.85,2.85,0,0,0,.47,50a.24.24,0,0,0,0,.08,4.41,4.41,0,0,0,.24.54.16.16,0,0,1,0,.07l.12.18,0,.06a3.76,3.76,0,0,0,.25.31l0,0,0,0,.06.06.05,0,0,.05.17.14,0,0a3.29,3.29,0,0,0,.33.23l.07,0,.15.08.06,0a3.62,3.62,0,0,0,.93.3l.16,0h0l.17,0h19.7l.17,0,.08,0h.09l.23-.06.06,0,.17-.06.07,0,.08,0,.06,0,.23-.11.07,0,.13-.08.07,0a1.33,1.33,0,0,0,.19-.14l.06,0,.13-.11s0,0,0,0a1.37,1.37,0,0,0,.17-.17l.11-.12.05-.06.05-.06,0-.06a.18.18,0,0,1,.05-.07l0-.06a1.74,1.74,0,0,0,.11-.18l0-.07,0-.07.05-.1,0-.07.08-.17a.14.14,0,0,1,0-.06l0-.07a.24.24,0,0,1,0-.08A3.36,3.36,0,0,0,26.26,48.9Z"/><path class="cls-7" d="M26.26,3.56v.33A3.46,3.46,0,0,0,23.13.45H3.6A3.47,3.47,0,0,0,.3,3.89V3.38s0-.11,0-.16V3.09A.13.13,0,0,1,.34,3s0,0,0-.08l0-.15s0,0,0-.07l.06-.21,0-.07,0-.08a.14.14,0,0,0,0-.07l0,0a.25.25,0,0,1,0-.07l0,0,0-.07L.7,1.94l0-.06a.25.25,0,0,0,0-.07,3.83,3.83,0,0,1,.33-.46l0-.06.06-.07.11-.11A1.14,1.14,0,0,1,1.43,1L1.56.89,1.62.84,1.75.75l.13-.1L2,.57l.07,0,.07,0,.07,0,.08,0L2.46.35l.07,0h0l.07,0,.07,0,.09,0,.08,0,.08,0L3,.18l.16,0h.09l.18,0H23.21l.09,0h.17l.08,0,.07,0h0l.07,0,.09,0,.07,0,.14,0,.1,0,.06,0,.08,0,.07,0a4.14,4.14,0,0,1,.5.3l.05,0,.2.16.09.08a3.26,3.26,0,0,1,.31.33l.05.06.1.14.05.07a.63.63,0,0,1,.07.12l0,.06.07.11,0,.06.09.21,0,.05.08.21s0,0,0,.08a2.47,2.47,0,0,1,.11.47v0s0,.05,0,.08a.25.25,0,0,1,0,.08s0,.06,0,.09a.92.92,0,0,0,0,.16Z"/><path d="M23,.43H3.6a3.14,3.14,0,0,0-3,3.13V49.23a3.14,3.14,0,0,0,2.88,3.12H23.05a3.14,3.14,0,0,0,2.88-3.12V3.56A3.14,3.14,0,0,0,23,.43Zm2.7,48.8A2.89,2.89,0,0,1,23,52.09H3.53A2.89,2.89,0,0,1,.89,49.23V3.56A2.86,2.86,0,0,1,3.6.7H23a2.86,2.86,0,0,1,2.71,2.86Z"/><path class="cls-8" d="M25.66,3.58V49.25a2.69,2.69,0,0,1-.12.81,3.16,3.16,0,0,1-.25.6l-.07.11-.11.16a2.41,2.41,0,0,1-.37.41,2.94,2.94,0,0,0,.39-1.48v-.52a.34.34,0,0,0,0-.1V3.57a.28.28,0,0,0,0-.09V3a3,3,0,0,0-.39-1.49A2.85,2.85,0,0,1,25.66,3.58Z"/><path d="M22.94,1H3.61a2.6,2.6,0,0,0-2.45,2.6V49.23a2.6,2.6,0,0,0,2.39,2.59H23a2.6,2.6,0,0,0,2.39-2.59V3.56A2.59,2.59,0,0,0,22.94,1Zm1.77,48.27A1.91,1.91,0,0,1,23,51.13H3.61a1.91,1.91,0,0,1-1.76-1.9V3.56a1.9,1.9,0,0,1,1.78-1.9H22.9a1.92,1.92,0,0,1,1.81,1.91Z"/><path d="M19.75,1.65V1.9a1.52,1.52,0,0,1-1.52,1.52H8.32A1.52,1.52,0,0,1,6.8,1.9V1.65Z"/><path d="M19.75,1.65V1.9a1.52,1.52,0,0,1-1.52,1.52H8.32A1.52,1.52,0,0,1,6.8,1.9V1.65Z"/><path class="cls-9" d="M25.13,49.34v.52a2.94,2.94,0,0,1-.39,1.48A2.8,2.8,0,0,1,23,52.1H3.42a2.83,2.83,0,0,1-1.6-.74,3,3,0,0,1-.4-1.49v-.62a2.33,2.33,0,0,0,2.15,2.33H23A2.33,2.33,0,0,0,25.13,49.34Z"/><path class="cls-10" d="M25.66,3.58h0A2.86,2.86,0,0,0,23,.71H3.6l-.18,0a2.8,2.8,0,0,0-1.6.74A3,3,0,0,0,1.42,3v.61a2.35,2.35,0,0,1,.82-1.78,2.39,2.39,0,0,1,1.38-.55h19.3a2.33,2.33,0,0,1,2.21,2.24V3a3,3,0,0,0-.39-1.49A2.85,2.85,0,0,1,25.66,3.58Z"/><path class="cls-11" d="M1.82,51.33a2.87,2.87,0,0,1-.93-2.1V3.56a2.88,2.88,0,0,1,.93-2.11,2.92,2.92,0,0,0-.4,1.49V49.85A3,3,0,0,0,1.82,51.33Z"/><path class="cls-12" d="M25.66,3.58V49.25a2.69,2.69,0,0,1-.12.81,3.16,3.16,0,0,1-.25.6l-.07.11-.11.16a3.7,3.7,0,0,1-.37.42h0a2.94,2.94,0,0,0,.39-1.48V3a3,3,0,0,0-.39-1.49A2.85,2.85,0,0,1,25.66,3.58Z"/><rect class="cls-13" x="11.68" y="1.86" width="3.04" height="0.32" rx="0.13"/><g class="cls-14"><path class="cls-15" d="M26.52,12.29l-.06,0a.09.09,0,0,0-.1.1V3.57A3.59,3.59,0,0,0,23.11,0L0,23.11V49.58a3.59,3.59,0,0,0,3.58,3.59H22.77a3.59,3.59,0,0,0,3.59-3.59V18.28a.1.1,0,0,0,.1.1.09.09,0,0,0,.06,0,.09.09,0,0,0,0-.07V12.37A.11.11,0,0,0,26.52,12.29ZM.49,50.18Zm.05.21Zm.49,1H1v0Zm1.74,1.2.08,0h0Zm.28.06h.12Zm20.1,0h0Zm2.2-51h0l0,0Z"/></g></g></g></g></svg>