<svg xmlns="http://www.w3.org/2000/svg" viewBox="0 0 587.77 513.43"><defs><style>.cls-1{fill:#966;}.cls-2{fill:#633;}.cls-3{fill:none;}.cls-4{fill:#c99;}.cls-5{fill:#333;}.cls-6{fill:#fcc;}.cls-7{fill:#ffc;}.cls-8{fill:#fc3;}.cls-9{fill:#f90;}.cls-10{fill:#963;}.cls-11{fill:#960;}.cls-12{fill:#630;}.cls-13{fill:#300;}.cls-14{fill:#c93;}.cls-15{fill:#fc9;}.cls-16{fill:#c60;}.cls-17{fill:#fc6;}</style></defs><g id="Layer_2" data-name="Layer 2"><g id="Layer_1-2" data-name="Layer 1"><polygon class="cls-1" points="211.62 198.39 280.52 20.43 356.04 21.61 211.62 198.39"/><polygon class="cls-2" points="221.33 42.07 280.52 20.43 211.62 198.39 221.33 42.07"/><polygon class="cls-3" points="272.45 234.5 272.4 234.61 272.38 234.56 272.45 234.5"/><polygon class="cls-4" points="355.99 21.64 272.45 234.69 211.62 198.39 355.99 21.64"/><polygon class="cls-5" points="221.33 42.07 211.62 198.39 186.6 159.29 221.33 42.07"/><polygon class="cls-6" points="355.98 21.67 408.08 246.42 272.45 234.69 355.98 21.67"/><polygon class="cls-7" points="355.99 21.64 356.04 21.61 457.82 54.03 457.82 54.03 408.08 246.42 355.98 21.67 355.99 21.64"/><polygon class="cls-8" points="314.44 406.78 278.43 367.2 273.15 405.1 314.44 406.78"/><polygon class="cls-9" points="297.17 465.22 314.44 406.78 273.15 405.1 297.17 465.22"/><polygon class="cls-2" points="474.98 497.69 451.7 450.25 406.34 513.43 474.98 497.69"/><polygon class="cls-2" points="330.12 350.49 326.27 307.5 297.32 331.91 330.12 350.49"/><polygon class="cls-5" points="326.27 307.5 330.12 350.49 362.81 302.62 326.27 307.5"/><polygon points="451.7 450.25 474.98 497.69 529.97 455.19 451.7 450.25"/><polygon class="cls-10" points="330.12 350.49 297.32 331.91 278.43 367.2 330.12 350.49"/><polygon class="cls-11" points="502.8 377.53 554.88 416.26 584.63 334.58 502.8 377.53"/><polygon class="cls-8" points="488.99 282.53 587.77 263.68 558.33 159.93 488.99 282.53"/><polygon class="cls-12" points="554.88 416.26 502.8 377.53 529.97 455.19 554.88 416.26"/><polygon class="cls-9" points="584.63 334.58 587.77 263.68 488.99 282.53 584.63 334.58"/><polygon class="cls-11" points="351.76 506.87 351.76 506.87 371.13 462.99 297.17 465.22 351.76 506.87"/><polygon class="cls-13" points="362.81 302.62 364.14 332.49 399.3 347.78 362.81 302.62"/><polygon class="cls-13" points="406.34 513.43 451.7 450.25 371.13 462.99 406.34 513.43"/><polygon class="cls-14" points="330.12 350.49 278.43 367.2 314.44 406.78 330.12 350.49"/><polygon class="cls-15" points="386.9 418.91 402.65 389.77 371.61 408.58 386.9 418.91"/><polygon class="cls-16" points="371.13 462.99 314.44 406.78 297.17 465.22 371.13 462.99"/><polygon class="cls-13" points="529.97 455.19 502.8 377.53 451.7 450.25 529.97 455.19"/><polygon class="cls-9" points="430.08 368.3 399.3 347.78 402.65 389.77 430.08 368.3"/><polygon class="cls-12" points="351.76 506.87 406.34 513.43 371.13 462.99 351.76 506.87"/><polygon points="330.12 350.49 364.14 332.49 362.81 302.62 330.12 350.49"/><polygon class="cls-16" points="584.63 334.58 488.99 282.53 502.8 377.53 584.63 334.58"/><polygon class="cls-16" points="399.3 347.78 430.08 368.3 423.53 338.91 399.3 347.78"/><polygon class="cls-7" points="371.61 408.58 345.39 399.09 364.1 415.68 371.61 408.58"/><polygon class="cls-11" points="399.3 347.78 423.53 338.91 393.46 310.51 399.3 347.78"/><polygon class="cls-8" points="417.33 403.17 430.08 368.3 402.65 389.77 417.33 403.17"/><polygon class="cls-6" points="371.61 408.58 364.1 415.68 386.9 418.91 371.61 408.58"/><polygon class="cls-12" points="393.46 310.51 362.81 302.62 399.3 347.78 393.46 310.51"/><polygon class="cls-17" points="386.9 418.91 417.33 403.17 402.65 389.77 386.9 418.91"/><polygon class="cls-17" points="488.96 282.51 488.99 282.53 558.33 159.93 558.33 159.93 558.33 159.93 457.82 54.03 488.96 282.51"/><polygon class="cls-15" points="457.82 54.03 408.08 246.42 488.96 282.51 457.82 54.03"/><polygon class="cls-3" points="305.9 372.83 305.93 372.73 305.96 372.76 305.9 372.83"/><polygon class="cls-9" points="45.93 65.46 100.24 29.99 187.86 159.32 45.93 65.46"/><polygon points="9.1 128.44 229.67 228.08 229.68 228.08 197.59 235.28 9.06 128.49 9.1 128.44"/><polygon class="cls-16" points="0 92.92 45.93 65.46 187.86 159.32 0 92.92"/><polygon class="cls-11" points="0 92.92 187.86 159.32 9.1 128.44 9.06 128.49 9.06 128.49 0 92.92 0 92.92"/><polygon class="cls-13" points="187.86 159.32 131.51 184.32 9.1 128.44 187.86 159.32"/><polygon class="cls-12" points="229.67 228.08 131.51 184.32 187.86 159.32 229.67 228.08"/><polygon class="cls-14" points="233.21 0 233.33 0.02 233.33 0.03 173.2 54.24 100.24 29.99 233.21 0"/><polygon class="cls-8" points="173.2 54.24 187.86 159.32 100.24 29.99 173.2 54.24"/><polygon class="cls-10" points="233.33 0.03 187.86 159.32 173.2 54.24 233.33 0.03"/></g></g></svg>